<mxfile host="app.diagrams.net" modified="2024-03-11T19:41:30.988Z" agent="Mozilla/5.0 (X11; Ubuntu; Linux x86_64; rv:123.0) Gecko/20100101 Firefox/123.0" version="24.0.4" etag="zqya3gMhJXVOVj6AaOlt" type="github">
  <diagram name="Page-1" id="qenuh-DgQb8p-w07TgO4">
    <mxGraphModel>
      <root>
        <mxCell id="0" />
        <mxCell id="1" parent="0" />
      </root>
    </mxGraphModel>
  </diagram>
</mxfile>
